<?xml version="1.0" encoding="UTF-8"?>
<svg id="logo" xmlns="http://www.w3.org/2000/svg" viewBox="0 0 627.97 420.76">
  <defs>
    <style>
      .cls-1 {
        fill: #ffffff;
      }
    </style>
  </defs>
  <path class="cls-1" d="m104.78,313.98h43.68c23.8,0,40.37-14,43.95-38.92l18.54-129.08c.84-5.83.8-11.04-.03-15.64l-106.14,183.64Zm94.06-202.18c-5.36-3.3-12.3-5.02-20.62-5.02h-43.68l-13.71,95.48,78.01-90.46Z"/>
  <path class="cls-1" d="m329.28,106.78l-4.84,207.2h-32.76l2.84-45.08h-17.36l-10.11,45.08h-31.08l54.68-207.2h38.64Zm-45.94,134.68h12.88l2.47-42.56,2.63-35.84h-.84l-7.67,35.84-9.47,42.56Z"/>
  <path class="cls-1" d="m385.53,237.82h-6.72l4.3-29.96h38.64l-15.32,106.68c-10.64,0-17.72-3.36-18.83-13.16-3.73,8.4-13.89,14.84-25.65,14.84-21.56,0-33.67-15.12-29.81-42l18.38-127.96c3.86-26.88,21.39-41.72,47.15-41.72s36.79,14.84,32.93,41.72l-6.15,42.84h-31.36l6.52-45.36c1.25-8.68-.27-13.72-5.59-13.72-5.6,0-8.56,5.04-9.81,13.72l-19.14,133.28c-1.21,8.4-.01,13.72,5.87,13.72,4.48,0,7.44-3.08,8.17-8.12l6.44-44.8Z"/>
  <path class="cls-1" d="m502.11,274.5c-3.86,26.88-21.39,41.72-46.87,41.72s-39.03-14.84-35.17-41.72l18.42-128.24c3.86-26.88,21.39-41.72,47.15-41.72s38.75,14.84,34.89,41.72l-18.42,128.24Zm-43.21,16.24c5.32,0,8.28-5.04,9.49-13.44l19.22-133.84c1.21-8.4-.31-13.44-5.63-13.44-5.6,0-8.56,5.04-9.77,13.44l-19.22,133.84c-1.21,8.4.31,13.44,5.91,13.44Z"/>
  <polygon class="cls-1" points="259.52 106.78 225.92 106.78 196.16 313.98 229.76 313.98 259.52 106.78"/>
</svg>
